<svg xmlns="http://www.w3.org/2000/svg" height="512" viewBox="-56 0 512 512" width="512"><g fill-rule="evenodd"><path d="M77.781 170.32c5.246 1.735 10.903-1.11 12.633-6.355 15.7-47.48 59.867-79.38 109.91-79.38 63.817 0 115.738 51.919 115.738 115.74 0 49.323-22.093 78.792-39.843 102.472-12.914 17.223-24.067 32.101-24.067 50.144 0 1.188-.015 2.364-.043 3.532h-41.785V333.5c0-5.523-4.476-10-10-10-5.523 0-10 4.477-10 10v22.973h-41.789a150.737 150.737 0 01-.043-3.532c0-18.046-11.152-32.921-24.066-50.148-13.074-17.441-27.89-37.211-35.239-65.3-1.398-5.345-6.867-8.544-12.207-7.145-5.34 1.394-8.539 6.863-7.14 12.203 8.34 31.887 25.11 54.262 38.586 72.238 11.21 14.957 20.066 26.77 20.066 38.152 0 4.79.203 9.461.598 13.918v84.586c0 .27.02.532.039.793.008.063.004.13.012.192.035.37.093.73.168 1.09v.007c3.472 16.29 12.363 31.102 25.043 41.707C167.273 506.047 183.602 512 200.324 512c16.723 0 33.047-5.953 45.973-16.766 12.676-10.605 21.57-25.418 25.039-41.707 0-.004.004-.007.004-.011.074-.356.129-.715.168-1.086.004-.063.004-.13.008-.192a10.5 10.5 0 00.039-.797V366.86c.394-4.457.601-9.129.601-13.918 0-11.382 8.856-23.195 20.067-38.152 18.5-24.68 43.84-58.477 43.84-114.465 0-74.847-60.895-135.738-135.739-135.738-58.687 0-110.484 37.414-128.898 93.101-1.735 5.243 1.113 10.899 6.355 12.633zM200.324 492c-20.332 0-38.668-12.297-47.355-30.559h94.71C238.99 479.703 220.653 492 200.325 492zm51.235-50.559h-102.47v-22.484h102.47zm0-42.484h-102.47v-22.484h102.47zM200.324 46.645c5.524 0 10-4.477 10-10V10c0-5.523-4.476-10-10-10-5.523 0-10 4.477-10 10v26.645c0 5.523 4.477 10 10 10zM10 210.324h26.645c5.523 0 10-4.476 10-10 0-5.523-4.477-10-10-10H10c-5.523 0-10 4.477-10 10 0 5.524 4.477 10 10 10zm0 0" data-original="#000000" class="active-path" data-old_color="#000000" fill="#898989"/><path d="M246.11 220.527c0-5.523-4.477-10-10-10h-71.57c-5.524 0-10 4.477-10 10 0 5.524 4.476 10 10 10h25.784V253.5c0 5.523 4.477 10 10 10 5.524 0 10-4.477 10-10v-22.973h25.785c5.524 0 10-4.476 10-10zM77.516 91.656a9.968 9.968 0 007.07 2.93 9.968 9.968 0 007.07-2.93c3.906-3.906 3.906-10.238 0-14.14l-18.84-18.84c-3.906-3.906-10.238-3.906-14.144 0-3.902 3.902-3.902 10.234 0 14.14zM58.848 351.8a9.968 9.968 0 007.07-2.929l18.84-18.84c3.906-3.906 3.906-10.234 0-14.14s-10.238-3.907-14.14 0l-18.845 18.84c-3.902 3.906-3.902 10.238 0 14.14a9.97 9.97 0 007.075 2.93zM316.063 94.586a9.968 9.968 0 007.07-2.93l18.84-18.84c3.906-3.906 3.906-10.238 0-14.144-3.903-3.906-10.235-3.902-14.141 0l-18.84 18.84c-3.906 3.906-3.906 10.238-.004 14.144a9.976 9.976 0 007.075 2.93zm-.173 221.304c-3.906 3.903-3.906 10.235 0 14.141l18.84 18.84a9.968 9.968 0 007.07 2.93 9.968 9.968 0 007.071-2.93c3.906-3.902 3.906-10.234 0-14.14l-18.84-18.84c-3.906-3.907-10.238-3.907-14.14 0zm48.114-105.566h26.644c5.524 0 10-4.476 10-10 0-5.523-4.476-10-10-10h-26.644c-5.524 0-10 4.477-10 10 0 5.524 4.476 10 10 10zM200.324 283.5c-5.508 0-10 4.492-10 10s4.492 10 10 10 10-4.492 10-10-4.492-10-10-10zM84.586 200.324c0-5.508-4.492-10-10-10-5.512 0-10 4.492-10 10s4.488 10 10 10c5.508 0 10-4.492 10-10zm0 0" data-original="#000000" class="active-path" data-old_color="#000000" fill="#898989"/></g></svg>