<svg xmlns="http://www.w3.org/2000/svg" height="512" width="512"><path d="M474.5 26h-437C16.822 26 0 42.822 0 63.5v315C0 399.178 16.822 416 37.5 416h152.557l-9.027 31.594C177.405 460.281 163.195 471 150 471h-49a7.5 7.5 0 000 15h310a7.5 7.5 0 000-15h-49c-13.195 0-27.405-10.719-31.03-23.406L321.943 416H474.5c20.678 0 37.5-16.822 37.5-37.5v-315c0-20.678-16.822-37.5-37.5-37.5zM316.547 451.715c2.058 7.204 6.149 13.824 11.512 19.285H183.941c5.363-5.461 9.454-12.081 11.512-19.285L205.657 416h100.685zM497 378.5c0 12.407-10.093 22.5-22.5 22.5h-437C25.093 401 15 390.907 15 378.5v-315C15 51.093 25.093 41 37.5 41h437c12.407 0 22.5 10.093 22.5 22.5z" data-original="#000000" class="active-path" data-old_color="#000000" fill="#898989"/><path d="M482 348.5v-285a7.5 7.5 0 00-7.5-7.5h-437a7.5 7.5 0 00-7.5 7.5V191a7.5 7.5 0 0015 0V71h422v270H45V221a7.5 7.5 0 00-15 0v127.5a7.5 7.5 0 007.5 7.5h437a7.5 7.5 0 007.5-7.5z" data-original="#000000" class="active-path" data-old_color="#000000" fill="#898989"/><circle cx="475.18" cy="378.473" r="7.5" data-original="#000000" class="active-path" data-old_color="#000000" fill="#898989"/><circle cx="445.18" cy="378.473" r="7.5" data-original="#000000" class="active-path" data-old_color="#000000" fill="#898989"/></svg>