<svg xmlns="http://www.w3.org/2000/svg" width="512" height="512"><path d="M350.56 73.694a9.997 9.997 0 00-9.117-1.251l-216.329 76.94H69.01c-38.053 0-69.01 30.958-69.01 69.01v14.548c0 38.053 30.958 69.011 69.01 69.011h47.827v128.182c0 5.524 4.479 10.002 10.002 10.002h69.655a10 10 0 008.644-15.033l-22.234-38.209v-64.391l158.54 56.387a10 10 0 0013.354-9.423V81.866a10.012 10.012 0 00-4.238-8.172zM116.838 281.949H98.679v-48.622c0-5.524-4.479-10.002-10.002-10.002-5.523 0-10.002 4.478-10.002 10.002v48.622H69.01c-27.023 0-49.007-21.984-49.007-49.008v-14.548c0-27.023 21.984-49.007 49.007-49.007h47.827v112.563zm20.003 138.184v-114.01l26.059 9.268v64.201h-9.659c-5.523 0-10.002 4.478-10.002 10.002 0 5.524 4.479 10.002 10.002 10.002h13.909l11.951 20.538h-42.26zM286.512 260.86c-5.523 0-10.002 4.478-10.002 10.002v63.707l-139.669-49.676v-118.45l139.668-49.675v82.372c0 5.524 4.479 10.002 10.002 10.002 5.523 0 10.002-4.478 10.002-10.002v-89.488l38.279-13.614v259.257l-38.278-13.614V270.86c-.001-5.522-4.48-10-10.002-10zm176.571-153.481a10.002 10.002 0 00-14.145 0c-3.906 3.906-3.906 10.239 0 14.145 27.818 27.817 43.138 64.803 43.138 104.143s-15.319 76.326-43.138 104.143c-3.906 3.906-3.906 10.239 0 14.145 1.953 1.953 4.513 2.929 7.072 2.929s5.119-.976 7.072-2.929c65.225-65.224 65.225-171.352.001-236.576z" data-original="#000000" class="active-path" data-old_color="#000000" fill="#3E3D3D"/><path d="M431.306 139.156c-3.906-3.906-10.237-3.906-14.145 0-3.906 3.906-3.906 10.239 0 14.144 39.903 39.904 39.903 104.831 0 144.735-3.906 3.906-3.906 10.239 0 14.144a9.97 9.97 0 007.072 2.929 9.975 9.975 0 007.072-2.929c47.703-47.703 47.703-125.32.001-173.023z" data-original="#000000" class="active-path" data-old_color="#000000" fill="#3E3D3D"/><path d="M399.531 170.932c-3.906-3.906-10.237-3.906-14.145 0-3.906 3.906-3.906 10.239 0 14.144 22.382 22.382 22.382 58.801 0 81.183-3.906 3.906-3.906 10.239 0 14.144a9.97 9.97 0 007.072 2.929 9.975 9.975 0 007.072-2.929c30.181-30.182 30.181-79.29.001-109.471zm-113.018 54.552c-5.523 0-10.002 4.478-10.002 10.002v.147c0 5.524 4.479 10.002 10.002 10.002s10.002-4.478 10.002-10.002v-.147c-.001-5.524-4.48-10.002-10.002-10.002zM88.677 186.833c-5.523 0-10.002 4.478-10.002 10.002v.147c0 5.524 4.479 10.002 10.002 10.002s10.002-4.478 10.002-10.002v-.147c-.001-5.525-4.48-10.002-10.002-10.002z" data-original="#000000" class="active-path" data-old_color="#000000" fill="#3E3D3D"/></svg>