<svg xmlns="http://www.w3.org/2000/svg" width="512" height="512" viewBox="0 0 506.464 506.464"><path d="M366.79 328.981c-.283-3.216-.886-6.378-1.613-9.528-.538-3.191-1.779-6.206-2.63-9.327-1.229-2.979-2.294-6.053-3.771-8.919-1.478-2.873-2.891-5.787-4.723-8.482-1.673-2.837-3.576-5.402-5.509-7.914-3.942-5.172-8.523-9.747-13.293-14.086-4.865-4.22-9.906-8.216-15.173-11.881a243.881 243.881 0 00-16.131-10.461c-5.474-3.325-11.065-6.455-16.722-9.452-5.213-2.884-10.598-5.435-15.918-8.133l.923-137.691 6.472.461c3.174.254 6.312.798 9.463 1.18 3.175.34 6.23 1.19 9.352 1.755 3.145.521 6.135 1.593 9.186 2.391 3.085.739 5.958 2.051 8.937 3.08 3.003.976 5.722 2.58 8.595 3.833 2.86 1.307 5.438 3.098 8.18 4.61 1.372.763 2.56 1.788 3.854 2.663l3.794 2.736.095.074a3.567 3.567 0 002.046.659 3.509 3.509 0 003.534-3.493l.308-45.771v-.198a3.417 3.417 0 00-1.69-2.973l-4.386-2.554c-1.442-.919-2.979-1.513-4.498-2.187-3.021-1.434-6.106-2.486-9.227-3.455-3.086-1.132-6.254-1.705-9.387-2.536-3.133-.848-6.301-1.235-9.457-1.87-3.156-.653-6.324-.914-9.493-1.38-3.156-.47-6.324-.739-9.492-1.011-4.936-.514-9.859-.756-14.795-1.011l.29-43.288a4.608 4.608 0 00-4.575-4.637h-.06L241.272 0a4.792 4.792 0 00-4.823 4.755v.068l-.29 44.118-5.388.913c-3.239.715-6.446 1.593-9.679 2.391-3.189.925-6.319 2.113-9.478 3.166-3.124 1.179-6.145 2.651-9.206 3.972-3.003 1.457-5.89 3.188-8.836 4.778-2.858 1.744-5.58 3.706-8.378 5.56-2.71 2.033-5.338 4.282-7.995 6.434-2.432 2.202-4.625 4.424-6.948 6.638-2.577 2.731-4.51 5.11-6.798 7.693-2.074 2.639-3.969 5.429-5.967 8.153-1.791 2.858-3.446 5.816-5.169 8.722-1.437 3.067-2.893 6.138-4.238 9.247-1.082 3.21-2.305 6.387-3.239 9.644-.748 3.31-1.693 6.537-2.255 9.939-.432 3.381-1.103 6.996-1.28 10.199l-.239 4.773-.127 2.391c-.009.523-.057.512-.044 1.478l.036 1.253c.127 6.694.496 13.45 1.853 20.1 1.138 6.685 3.142 13.246 5.654 19.588 2.488 6.088 6.204 12.971 9.667 17.892 1.998 3.098 4.338 5.544 6.511 8.328 2.403 2.415 4.793 4.859 7.258 7.185l7.669 6.47 7.965 5.884c5.429 3.68 10.858 7.397 16.488 10.637 5.556 3.423 11.239 6.514 16.929 9.599 4.333 2.389 8.745 4.575 13.146 6.798l-.842 124.847c-1.215-.07-2.438-.124-3.656-.219-3.89-.608-7.814-1.117-11.68-1.779l-11.337-2.63-11.966-3.741c-1.478-.402-3.609-1.371-5.382-2.021l-5.568-2.188c-3.753-1.389-7.111-3.369-10.695-5.018-3.606-1.638-6.638-3.961-9.998-5.882-1.72-.922-3.056-2.245-4.575-3.362l-4.457-3.471-.36-.295a8.81 8.81 0 00-5.352-1.85c-4.865-.036-8.825 3.883-8.854 8.729l-.316 46.849-.006.284a8.51 8.51 0 004.158 7.353l5.63 3.34c1.895 1.059 3.703 2.329 5.683 3.209 3.939 1.797 7.761 3.967 11.822 5.427 4.055 1.466 8.023 3.28 12.182 4.351 4.135 1.17 8.216 2.589 12.41 3.369 4.176.856 8.334 1.962 12.54 2.471 4.203.543 8.402 1.436 12.608 1.684 4.203.326 8.42.846 12.62 1.006l2.799.088-.316 46.85c-.029 5.55 4.436 10.077 9.975 10.119h.133l27.996.183c5.657.036 10.262-4.51 10.309-10.16v-.136l.378-58.416.019-2.034c1.306-.283 2.553-.638 3.836-.951 1.395-.267 2.789-.562 4.167-.94 3.12-.674 6.105-1.797 9.155-2.754 3.062-.898 6.012-2.122 8.949-3.352 2.991-1.129 5.869-2.518 8.694-4.014l4.256-2.187 4.079-2.524c1.354-.851 2.736-1.66 4.055-2.553l3.848-2.891c2.643-1.844 5.012-3.973 7.341-6.147 2.43-2.051 4.587-4.492 6.721-6.851 2.275-2.275 4.061-4.947 6.018-7.5 3.782-5.179 6.803-10.883 9.403-16.764 1.165-2.99 2.182-6.047 3.216-9.085.709-3.138 1.596-6.229 2.151-9.403.396-3.187 1.041-6.402 1.218-9.576.101-3.209.455-6.301.343-9.61-.136-3.215-.136-6.447-.633-9.64zm-79.878-38.479l4.221 3.251 3.901 3.636c2.577 2.429 5.248 4.758 7.389 7.571 2.233 2.719 4.669 5.272 6.336 8.341l2.771 4.415c.94 1.454 1.419 3.145 2.146 4.687.649 1.59 1.395 3.15 1.974 4.729l1.129 4.836c1.028 3.014.904 6.803 1.153 10.338l.064 1.348.035.668c-.035-.35-.035.271-.053.36l-.201 2.554c-.07 1.714-.354 3.381-.626 5.053-.521 3.34-1.401 6.573-2.554 9.67-1.123 3.115-2.684 6-4.403 8.748-1.886 2.648-3.907 5.172-6.295 7.365-2.376 2.205-4.93 4.215-7.755 5.893a36.553 36.553 0 01-4.304 2.4 38.015 38.015 0 01-4.516 2.062c-3.038 1.318-6.254 2.347-9.493 3.251-.661.195-1.354.337-2.033.509l3.907-107.003c2.49 1.654 4.825 3.521 7.207 5.318zm-63.336-85.525c-2.852-2.125-5.689-4.268-8.136-6.765-2.536-2.424-5.187-4.619-7.3-7.578l-3.357-4.179c-.877-1.209-1.658-2.952-2.494-4.392-.763-1.54-1.773-2.943-2.344-4.572l-1.62-4.896c-1.338-3.184-1.501-6.626-2.143-9.918-.795-3.186-.425-7.01-.641-10.509l-.074-2.675c-.035-.502.104-1.604.145-2.379.127-1.699.219-3.402.538-5.06.479-3.34 1.224-6.632 2.35-9.756a34.212 34.212 0 011.835-4.619c.629-1.531 1.445-2.958 2.276-4.38 1.64-2.858 3.381-5.178 5.846-8.051 2.101-2.199 4.788-4.389 7.093-6.593 2.707-1.815 5.503-3.484 8.24-5.193 3.056-1.191 6.038-2.506 9.079-3.638l1.942-.452-3.996 110.785c-2.481-1.613-4.884-3.375-7.239-5.18z" data-original="#000000" class="active-path" data-old_color="#000000" fill="#3E3D3D"/></svg>