<svg xmlns="http://www.w3.org/2000/svg" width="512" height="512" viewBox="0 0 91.674 91.674"><path d="M38.157.003c-8.398.373-15.895 3.722-21.68 9.685C1.141 25.498 1.436 55.3 1.52 58.596l.001 31.078a2 2 0 002 2h30.691a2 2 0 002-2V58.981a2 2 0 00-2-2H18.527c.003-2.562.313-25.309 10.186-35.455 2.672-2.747 5.836-4.214 9.674-4.485a2 2 0 001.859-1.995V2.002a2 2 0 00-.617-1.445 1.951 1.951 0 00-1.472-.554zm51.396.553a1.936 1.936 0 00-1.472-.553C79.684.375 72.186 3.725 66.4 9.688 51.065 25.498 51.359 55.3 51.443 58.596l.001 31.078a2 2 0 002 2h30.69a2 2 0 002-2V58.981a2 2 0 00-2-2H68.452c.003-2.562.313-25.309 10.185-35.455 2.673-2.747 5.837-4.214 9.675-4.485a1.998 1.998 0 001.858-1.995V2.002c0-.545-.223-1.067-.617-1.446z" data-original="#000000" class="active-path" data-old_color="#000000" fill="#EFEFEF"/></svg>