<svg xmlns="http://www.w3.org/2000/svg" width="512" height="512" viewBox="0 0 91.673 91.673"><path d="M53.515 91.669c8.398-.372 15.896-3.722 21.682-9.685 15.336-15.811 15.041-45.611 14.957-48.907L90.151 2a2 2 0 00-2-2h-30.69a2 2 0 00-2 2v30.691a2 2 0 002 2h15.685C73.144 37.254 72.833 60 62.96 70.146c-2.672 2.746-5.836 4.215-9.674 4.484a1.999 1.999 0 00-1.859 1.995V89.67c0 .546.223 1.066.617 1.445.394.378.918.588 1.471.554zM2.12 91.116c.395.377.907.587 1.472.553 8.398-.372 15.896-3.722 21.681-9.685 15.336-15.81 15.041-45.611 14.957-48.907L40.228 2a2 2 0 00-2-2H7.537a2 2 0 00-2 2v30.691a2 2 0 002 2h15.684c-.004 2.563-.314 25.309-10.185 35.455-2.672 2.746-5.836 4.215-9.674 4.484a2 2 0 00-1.859 1.995V89.67a2 2 0 00.617 1.446z" data-original="#000000" class="active-path" data-old_color="#000000" fill="#EFEFEF"/></svg>