<svg xmlns="http://www.w3.org/2000/svg" width="512" height="512" class="hovered-paths"><path d="M256 0c141.163 0 256 114.837 256 256S397.163 512 256 512 0 397.163 0 256 114.837 0 256 0zm-79.083 271.083l106.667 106.666A21.275 21.275 0 00298.667 384a21.277 21.277 0 0015.083-6.251c8.341-8.341 8.341-21.824 0-30.165L222.165 256l91.584-91.584c8.341-8.341 8.341-21.824 0-30.165s-21.824-8.341-30.165 0L176.917 240.918c-8.341 8.341-8.341 21.823 0 30.165z" data-original="#000000" class="active-path" data-old_color="#000000" fill="#FFF"/></svg>